<?xml version="1.0" encoding="utf-8"?>
<svg xmlns="http://www.w3.org/2000/svg" viewBox="0 0 24 24" fill="#666666"><path d="M 3 2 C 1.895 2 1 2.895 1 4 L 1 16 C 1 17.105 1.895 18 3 18 L 10 18 C 10 19.105 9.105 20 8 20 L 8 22 L 16 22 L 16 20 C 14.895 20 14 19.105 14 18 L 21 18 C 22.105 18 23 17.105 23 16 L 23 14 L 3 14 L 3 4 L 23 4 C 23 2.895 22.105 2 21 2 L 3 2 z M 20 5 L 20 8 L 14 8 L 14 10 L 20 10 L 20 13 L 24 9 L 20 5 z M 12 15 C 12.552 15 13 15.448 13 16 C 13 16.552 12.552 17 12 17 C 11.448 17 11 16.552 11 16 C 11 15.448 11.448 15 12 15 z" fill="#666666"/></svg>
