<?xml version="1.0" encoding="utf-8"?>
<svg xmlns="http://www.w3.org/2000/svg" viewBox="0 0 24 24" fill="#666666"><path d="M 10 2 C 8.7068414 2 7.6048587 2.84267 7.1875 4 L 2 4 L 2 6 L 7.1875 6 C 7.6048587 7.15733 8.7068414 8 10 8 C 11.64501 8 13 6.6450096 13 5 C 13 3.3549904 11.64501 2 10 2 z M 10 4 C 10.564129 4 11 4.4358706 11 5 C 11 5.5641294 10.564129 6 10 6 C 9.4358706 6 9 5.5641294 9 5 C 9 4.4358706 9.4358706 4 10 4 z M 15 4 L 15 6 L 22 6 L 22 4 L 15 4 z M 15 9 C 13.706841 9 12.604859 9.8426699 12.1875 11 L 2 11 L 2 13 L 12.1875 13 C 12.604859 14.15733 13.706841 15 15 15 C 16.64501 15 18 13.64501 18 12 C 18 10.35499 16.64501 9 15 9 z M 15 11 C 15.564129 11 16 11.435871 16 12 C 16 12.564129 15.564129 13 15 13 C 14.435871 13 14 12.564129 14 12 C 14 11.435871 14.435871 11 15 11 z M 20 11 L 20 13 L 22 13 L 22 11 L 20 11 z M 7 16 C 5.7068414 16 4.6048587 16.84267 4.1875 18 L 2 18 L 2 20 L 4.1875 20 C 4.6048587 21.15733 5.7068414 22 7 22 C 8.6450096 22 10 20.64501 10 19 C 10 17.35499 8.6450096 16 7 16 z M 7 18 C 7.5641294 18 8 18.435871 8 19 C 8 19.564129 7.5641294 20 7 20 C 6.4358706 20 6 19.564129 6 19 C 6 18.435871 6.4358706 18 7 18 z M 12 18 L 12 20 L 22 20 L 22 18 L 12 18 z" fill="#666666"/></svg>
